<svg xmlns="http://www.w3.org/2000/svg" aria-hidden="true"
    style="position:absolute;width:0;height:0;overflow:hidden">
    <defs>
        <symbol id="icon-menu" viewBox="0 0 16 16">
            <path
                d="M2.4 4.001a.8.8 0 0 1 .8-.8h9.6a.8.8 0 1 1 0 1.6H3.2a.8.8 0 0 1-.8-.8zM2.4 8.001a.8.8 0 0 1 .8-.8h9.6a.8.8 0 1 1 0 1.6H3.2a.8.8 0 0 1-.8-.8zM2.4 12.001a.8.8 0 0 1 .8-.8h9.6a.8.8 0 1 1 0 1.6H3.2a.8.8 0 0 1-.8-.8z" />
        </symbol>
        <symbol id="icon-check" viewBox="0 0 20 16">
            <path
                d="M16.891.51a1.834 1.834 0 0 1 2.558.02 1.855 1.855 0 0 1 .068 2.571L9.728 15.41a1.83 1.83 0 0 1-2.037.457 1.834 1.834 0 0 1-.613-.408L.586 8.932a1.863 1.863 0 0 1-.451-2.046 1.85 1.85 0 0 1 1.017-1.022 1.823 1.823 0 0 1 1.438.026c.225.101.429.247.597.429l5.137 5.163L16.845.567a.628.628 0 0 1 .049-.054h-.002z"
            />
        </symbol>
        <symbol id="icon-person" viewBox="0 0 16 16">
            <path
                d="M8 8a2.666 2.666 0 1 0 0-5.334A2.666 2.666 0 1 0 8 8zm0 1.333c-1.78 0-5.333.893-5.333 2.667v.667c0 .367.3.667.667.667h9.333c.367 0 .667-.3.667-.667V12c0-1.773-3.553-2.667-5.333-2.667z"
            />
        </symbol>
        <symbol id="icon-close" viewBox="0 0 16 16">
            <path
                d="M16 1.611 14.389 0 8 6.389 1.611 0 0 1.611 6.389 8 0 14.389 1.611 16 8 9.611 14.389 16 16 14.389 9.611 8 16 1.611z" />
        </symbol>
        <symbol id="icon-email" viewBox="0 0 12 16">
            <path
                d="M10 4H2c-.55 0-.995.45-.995 1L1 11c0 .55.45 1 1 1h8c.55 0 1-.45 1-1V5c0-.55-.45-1-1-1zm-.2 2.125-3.535 2.21c-.16.1-.37.1-.53 0L2.2 6.125a.425.425 0 1 1 .45-.72L6 7.5l3.35-2.095a.425.425 0 1 1 .45.72z" />
        </symbol>
        <symbol id="icon-phone" viewBox="0 0 12 16">
            <path
                d="m9.818 9.243-1.225-.14a.96.96 0 0 0-.791.275l-.888.888a7.257 7.257 0 0 1-3.179-3.179l.893-.893a.96.96 0 0 0 .275-.791l-.14-1.216a.966.966 0 0 0-.96-.854h-.835c-.545 0-.999.454-.965.999a8.197 8.197 0 0 0 7.666 7.666c.545.034.999-.42.999-.965v-.835a.956.956 0 0 0-.849-.955z" />
        </symbol>
        <symbol id="icon-icons" viewBox="0 0 16 16">
            <path
                d="m9.818 9.243-1.225-.14a.96.96 0 0 0-.791.275l-.888.888a7.257 7.257 0 0 1-3.179-3.179l.893-.893a.96.96 0 0 0 .275-.791l-.14-1.216a.966.966 0 0 0-.96-.854h-.835c-.545 0-.999.454-.965.999a8.197 8.197 0 0 0 7.666 7.666c.545.034.999-.42.999-.965v-.835a.956.956 0 0 0-.849-.955z" />
        </symbol>
        <symbol id="icon-subscribe" viewBox="0 0 16 16">
            <path fill="#fff"
                d="m16 1.333-16 7.5 5.113 1.578L13 4.25l-5.999 6.744.005.002L7 10.994v3.672l2.868-2.788 3.633 1.121 2.5-11.667z"
                style="fill:var(--color3, #fff)" />
        </symbol>
        <symbol id="icon-antenna" viewBox="0 0 16 16">
            <path fill="#2e2f42"
                d="m15.387 11.049-4.222-4.253.469-2.308c.121.047.249.072.379.073h.003a1.08 1.08 0 1 0-1.005-.717l-2.48.303L4.486.081c-.05-.051-.117-.079-.188-.08s-.137.028-.187.078l-.756.752a.267.267 0 0 0 0 .377l.407.413a7.47 7.47 0 0 0 1.26 8.831.26.26 0 0 0 .073.049c-.017.09-.026.182-.026.274v3.093h-3.2a1.335 1.335 0 0 0-1.333 1.333v.533c0 .147.119.267.267.267H13.07a.267.267 0 0 0 .267-.267v-.533a1.335 1.335 0 0 0-1.333-1.333h-3.2v-1.371a7.504 7.504 0 0 0 1.524.16 7.42 7.42 0 0 0 3.52-.892l.409.411c.05.051.117.079.188.08s.137-.028.187-.078l.756-.752a.267.267 0 0 0 0-.377zM11.64 3.117a.533.533 0 1 1 .376.911h-.002a.534.534 0 0 1-.374-.911h-.001zm-.628 1.752-.299 1.473-.588-.591.887-.882zm-.303-.451-.96.954-.743-.747 1.703-.208zm1.293 9.982a.8.8 0 0 1 .8.8v.267H1.069V15.2a.8.8 0 0 1 .8-.8h10.133zm-3.733-1.067v.533H5.602v-.533h2.667zM5.602 12.8v-2.027c0-.647.598-1.173 1.333-1.173s1.333.526 1.333 1.173V12.8H5.601zm3.2-.848v-1.179c0-.941-.837-1.707-1.867-1.707a1.902 1.902 0 0 0-1.641.893 6.934 6.934 0 0 1-1.139-7.944l9.301 9.354a6.912 6.912 0 0 1-4.654.582zm5.645-.342L3.918 1.02l.377-.376 3.967 3.99c.002 0 .003.003.005.005l6.557 6.596-.378.376z"
                style="fill:var(--color4, #2e2f42)" />
            <path fill="#4d5ae5"
                d="M6.938 10.133h-.002a.8.8 0 1 0-.002 1.6h.002a.8.8 0 1 0 .002-1.6zm.186.989a.267.267 0 1 1-.188-.456.267.267 0 0 1 .186.456h.002z"
                style="fill:var(--color2, #4d5ae5)" />
        </symbol>
        <symbol id="icon-astronaut" viewBox="0 0 16 16">
            <path fill="#4d5ae5"
                d="M15.987 2.262a.266.266 0 0 0-.215-.181l-.955-.139-.427-.866c-.09-.182-.389-.182-.478 0l-.427.866-.955.139a.266.266 0 0 0-.148.454l.691.674-.163.951c-.017.1.024.201.106.261.083.06.191.068.281.02l.854-.449.854.449a.262.262 0 0 0 .281-.02.268.268 0 0 0 .106-.261l-.163-.951.691-.674a.266.266 0 0 0 .067-.273zm-1.231.663a.269.269 0 0 0-.077.236l.095.557-.5-.263a.262.262 0 0 0-.248 0l-.5.263.095-.557a.266.266 0 0 0-.077-.236l-.405-.395.559-.081a.267.267 0 0 0 .201-.146l.25-.507.25.507a.267.267 0 0 0 .201.146l.559.081-.405.395zM13.067 10.261h-.533v.533h.533v-.533zM13.067 11.328h-.533v.533h.533v-.533zM13.6 10.794h-.533v.533h.533v-.533zM12.533 10.794H12v.533h.533v-.533zM11.2 13.194h-.533v.533h.533v-.533zM11.2 14.261h-.533v.533h.533v-.533zM11.733 13.728H11.2v.533h.533v-.533zM10.667 13.728h-.533v.533h.533v-.533zM8 12.128h-.533v.533H8v-.533zM8 13.194h-.533v.533H8v-.533zM8.533 12.661H8v.533h.533v-.533zM7.467 12.661h-.533v.533h.533v-.533zM2.933 3.061H2.4v.533h.533v-.533zM2.933 4.128H2.4v.533h.533v-.533zM3.467 3.594h-.533v.533h.533v-.533zM2.4 3.594h-.533v.533H2.4v-.533z"
                style="fill:var(--color2, #4d5ae5)" />
            <path fill="#2e2f42"
                d="M12.357 7.08a.885.885 0 0 0-.594-.352.888.888 0 0 0-.67.176l-.626.48-.949.709-.679-.27a3.468 3.468 0 0 0 2.057-3.16c0-1.912-1.561-3.467-3.481-3.467S3.934 2.751 3.934 4.663c0 .693.207 1.337.56 1.879L3.112 6.53H3.11l-.012.002a.27.27 0 0 0-.078.015l-.019.007a.126.126 0 0 1-.01.003l-1.617.798h-.001l-.947.455a.89.89 0 0 0 .468 1.652.882.882 0 0 0 .42-.106l.694-.369 1.132-.585.678-.004-2.721 2.708-.001.001-.669.667c-.158.157-.245.366-.245.589s.087.432.245.589a.834.834 0 0 0 1.18 0l.657-.654.87-.65.45.449-.881.877-.001.001-.669.667c-.158.157-.245.366-.245.589s.087.432.245.589a.834.834 0 0 0 1.18 0l1.741-1.733.001-.001.505-.5-.002-.002c.003-.003.008-.004.011-.008l2.583-2.829 1.736.247a.243.243 0 0 0 .157-.028c.01-.005.02-.007.029-.014l1.607-1.067c.006-.004.009-.01.015-.015s.014-.007.02-.013l.636-.595a.89.89 0 0 0 .106-1.181zM1.065 8.885c-.087.046-.185.056-.279.026a.358.358 0 0 1-.106-.63l.657-.316.225.656-.496.264zm1.749-.914-.774.4-.219-.642 1.013-.5-.02.742zm7.549-3.31c0 .459-.11.892-.299 1.28l-2.091-.95a.931.931 0 0 0-.394-.694l.732-2.43a2.939 2.939 0 0 1 2.052 2.794zm-5.894 0a2.944 2.944 0 0 1 3.32-2.907l-.716 2.377c-.01 0-.019-.003-.029-.003-.516 0-.936.419-.936.933s.42.933.936.933a.935.935 0 0 0 .809-.472l1.931.877a2.945 2.945 0 0 1-2.368 1.195 2.944 2.944 0 0 1-2.947-2.933zm2.978.4c0 .221-.181.4-.403.4s-.403-.179-.403-.4c0-.221.181-.4.403-.4s.403.179.403.4zm-6.215 7.512a.304.304 0 0 1-.427 0 .297.297 0 0 1 0-.422l.481-.479.426.424-.479.477zm1.607 1.867a.304.304 0 0 1-.427 0 .297.297 0 0 1 0-.422l.481-.479.426.424-.48.478zm1.741-1.735-.001.001-.882.88-.426-.424.882-.878.001-.001a.251.251 0 0 0 .045-.068c.003-.007.01-.013.013-.02.008-.021.01-.043.013-.064.002-.012.007-.024.007-.036 0-.018-.006-.035-.01-.053-.003-.016-.003-.032-.009-.048a.252.252 0 0 0-.046-.069c-.005-.006-.007-.013-.013-.019l-.001-.001-.803-.8c-.009-.009-.019-.012-.029-.019-.014-.011-.028-.021-.043-.029s-.031-.012-.047-.016a.23.23 0 0 0-.051-.01c-.016-.001-.031.001-.048.002-.018.002-.035.005-.052.01s-.032.014-.047.022c-.01.006-.021.007-.03.014l-.887.662-.45-.449 1.2-1.193 2.18 2.144-.464.459zm3.41-3.508c-.008-.001-.015.002-.023.001a.286.286 0 0 0-.058.003c-.015.003-.03.006-.044.011a.265.265 0 0 0-.09.054c-.006.006-.014.008-.02.015l-2.349 2.573-2.164-2.128 1.417-1.409a.267.267 0 0 0-.19-.455l-1.109.007.014-.804 1.552.013a3.475 3.475 0 0 0 3.131.989c.02.016.04.032.065.042l1.205.48.076.379.089.443-1.501-.214zm2.02.089-.157-.779.723-.54.473.628-1.04.691zm1.877-1.415-.419.393-.466-.618.416-.319a.362.362 0 0 1 .511.071.357.357 0 0 1-.043.474z"
                style="fill:var(--color4, #2e2f42)" />
            <path fill="#2e2f42"
                d="M6.801 9.272 5.73 8.205a.266.266 0 0 0-.376 0L4.283 9.272a.267.267 0 0 0 0 .378l1.071 1.067a.265.265 0 0 0 .376 0L6.802 9.65a.264.264 0 0 0 0-.378zm-1.259.88-.693-.69.693-.69.694.69-.694.69zM8.582 2.535l-.129.518c.035.009.869.226.869 1.074h.533c0-1.009-.833-1.483-1.273-1.592zM9.855 4.661h-.533v.533h.533v-.533z"
                style="fill:var(--color4, #2e2f42)" />
        </symbol>
        <symbol id="icon-clock" viewBox="0 0 16 16">
            <path fill="#2e2f42"
                d="M15.648 7.651a7.654 7.654 0 0 0-15.305.003 7.651 7.651 0 0 0 5.325 7.288.333.333 0 0 0 .264-.033.322.322 0 0 0 .142-.178l1.932-6.125a.957.957 0 0 0-.009-1.913.942.942 0 0 0-.41.096L5.034 4.236a.319.319 0 0 0-.451.451l2.552 2.555a.939.939 0 0 0 .268 1.155l-1.841 5.836a7.022 7.022 0 1 1 5.285-.175l-.199-.937a.32.32 0 0 0-.524-.172l-1.918 1.713a.318.318 0 0 0 .116.542l2.449.782a.318.318 0 0 0 .409-.37l-.196-.92a7.627 7.627 0 0 0 4.664-7.045zm-7.652-.319a.32.32 0 1 1 0 .638.32.32 0 0 1 0-.638zm1.05 7.432 1.092-.974.301 1.42-1.393-.446z"
                style="fill:var(--color4, #2e2f42)" />
            <path fill="#4d5ae5"
                d="M7.677 1.593v.638a.32.32 0 0 0 .638 0v-.638a.32.32 0 0 0-.638 0zM1.938 7.332a.32.32 0 0 0 0 .638h.638a.32.32 0 0 0 0-.638h-.638zM14.054 7.969a.32.32 0 0 0 0-.638h-.638a.32.32 0 0 0 0 .638h.638z"
                style="fill:var(--color2, #4d5ae5)" />
        </symbol>
        <symbol id="icon-diagram" viewBox="0 0 16 16">
            <path fill="#4d5ae5"
                d="M7.463 7.482h.533v2.399h-.533V7.482zM9.595 8.548h.533v1.333h-.533V8.548zM5.331 9.348h.533v.533h-.533v-.533zM3.731 9.081h.533v.8h-.533v-.8z"
                style="fill:var(--color2, #4d5ae5)" />
            <path fill="#2e2f42"
                d="M.8 14.145h12.793a.8.8 0 0 0 .8-.8v-1.066a.8.8 0 0 0-.8-.8h-.267V4.832l1.514-1.434a.805.805 0 0 0 .931-1.283.804.804 0 0 0-1.303.902l-1.141 1.081v-.615a.8.8 0 0 0-.8-.8H1.866a.8.8 0 0 0-.8.8v7.996H.799a.8.8 0 0 0-.8.8v1.066a.8.8 0 0 0 .8.8zM15.192 2.418a.267.267 0 1 1 0 .534.267.267 0 0 1 0-.534zM1.599 3.484c0-.147.119-.267.267-.267h10.661c.147 0 .267.119.267.267v1.119l-.533.507V4.017a.267.267 0 0 0-.267-.267H2.399a.267.267 0 0 0-.267.267v6.663c0 .147.119.267.267.267h9.595a.267.267 0 0 0 .267-.267V5.843l.533-.505v6.142H1.6V3.484zm2.399 3.465a.799.799 0 1 0 .554 1.374l.926.465a.266.266 0 0 0 .318-.061l1.969-2.216 1.936 1.451c.104.078.249.07.343-.02l1.683-1.594v4.066H2.665v-6.13h9.062v1.33L9.841 7.4 7.889 5.936a.267.267 0 0 0-.359.036L5.534 8.218l-.746-.373a.777.777 0 0 0 .01-.097.8.8 0 0 0-.8-.8zm.266.8a.267.267 0 1 1-.534 0 .267.267 0 0 1 .534 0zm1.6 4.264h2.665v.267a.267.267 0 0 1-.267.267H6.13a.267.267 0 0 1-.267-.267v-.267zm-5.331.267c0-.147.119-.267.267-.267h4.531v.267a.8.8 0 0 0 .8.8h2.132a.8.8 0 0 0 .8-.8v-.267h4.531c.147 0 .267.119.267.267v1.066a.267.267 0 0 1-.267.267H.801a.267.267 0 0 1-.267-.267V12.28z"
                style="fill:var(--color4, #2e2f42)" />
        </symbol>
        <symbol id="icon-facebook" viewBox="0 0 16 16">
            <path fill="#f4f4fd"
                d="M10.665 2.657h1.461V.113A18.755 18.755 0 0 0 9.998 0C7.892 0 6.449 1.325 6.449 3.759V6H4.125v2.844h2.324V16h2.849V8.845h2.23l.354-2.844H9.297V4.042c.001-.822.222-1.385 1.367-1.385z"
                style="fill:var(--color1, #f4f4fd)" />
        </symbol>
        <symbol id="icon-instagram" viewBox="0 0 16 16">
            <path fill="#f4f4fd"
                d="M15.984 4.704c-.037-.85-.175-1.435-.372-1.941a3.904 3.904 0 0 0-.925-1.419 3.944 3.944 0 0 0-1.416-.922C12.762.225 12.18.088 11.33.05 10.473.009 10.202 0 8.029 0S5.585.009 4.731.047c-.85.037-1.435.175-1.941.372a3.904 3.904 0 0 0-1.419.925c-.406.4-.722.885-.922 1.416-.197.51-.334 1.091-.372 1.941-.041.856-.05 1.128-.05 3.301s.009 2.444.047 3.297c.037.85.175 1.435.372 1.941.203.538.519 1.019.925 1.419.4.406.885.722 1.416.922.51.197 1.091.334 1.941.372.853.038 1.125.047 3.298.047s2.444-.009 3.298-.047c.85-.037 1.435-.175 1.941-.372a4.095 4.095 0 0 0 2.341-2.341c.197-.509.334-1.091.372-1.941.038-.853.047-1.125.047-3.297s-.003-2.444-.041-3.298zm-1.441 6.532c-.034.781-.166 1.203-.275 1.485a2.655 2.655 0 0 1-1.519 1.519c-.281.109-.706.241-1.485.275-.844.038-1.097.047-3.232.047s-2.391-.009-3.232-.047c-.781-.034-1.203-.165-1.485-.275a2.453 2.453 0 0 1-.919-.597 2.477 2.477 0 0 1-.597-.919c-.109-.281-.241-.706-.275-1.485-.038-.844-.047-1.097-.047-3.232s.009-2.391.047-3.232c.034-.781.166-1.203.275-1.485.128-.347.331-.663.6-.919.259-.266.572-.469.919-.597.281-.109.706-.241 1.485-.275.844-.037 1.097-.047 3.232-.047 2.138 0 2.391.009 3.232.047.781.034 1.203.166 1.485.275.347.128.663.331.919.597.266.259.469.572.597.919.109.281.241.706.275 1.485.037.844.047 1.097.047 3.232s-.009 2.385-.047 3.229z"
                style="fill:var(--color1, #f4f4fd)" />
            <path fill="#f4f4fd"
                d="M8.03 3.891a4.111 4.111 0 0 0 0 8.22 4.111 4.111 0 0 0 0-8.22zm0 6.777a2.667 2.667 0 1 1 .001-5.333 2.667 2.667 0 0 1-.001 5.333zM13.262 3.729a.96.96 0 1 1-1.92 0 .96.96 0 0 1 1.92 0z"
                style="fill:var(--color1, #f4f4fd)" />
        </symbol>
        <symbol id="icon-linkedin" viewBox="0 0 16 16">
            <path fill="#f4f4fd"
                d="M15.996 16v-.001H16v-5.868c0-2.871-.618-5.082-3.974-5.082-1.613 0-2.696.885-3.138 1.725h-.047V5.317H5.659v10.682h3.313V10.71c0-1.393.264-2.739 1.989-2.739 1.699 0 1.725 1.589 1.725 2.829v5.201h3.31zM.264 5.318h3.317V16H.264V5.318zM1.921 0C.86 0 0 .861 0 1.921S.861 3.86 1.921 3.86c1.061 0 1.921-.879 1.921-1.939S2.981 0 1.921 0z"
                style="fill:var(--color1, #f4f4fd)" />
        </symbol>
        <symbol id="icon-twitter" viewBox="0 0 16 16">
            <path fill="#f4f4fd"
                d="M16 3.039a6.839 6.839 0 0 1-1.89.518 3.262 3.262 0 0 0 1.443-1.813 6.555 6.555 0 0 1-2.08.794 3.28 3.28 0 0 0-5.674 2.243c0 .26.022.51.076.748a9.284 9.284 0 0 1-6.761-3.431 3.285 3.285 0 0 0 1.008 4.384A3.24 3.24 0 0 1 .64 6.078v.036a3.295 3.295 0 0 0 2.628 3.223 3.274 3.274 0 0 1-.86.108 2.9 2.9 0 0 1-.621-.056 3.311 3.311 0 0 0 3.065 2.285 6.59 6.59 0 0 1-4.067 1.399c-.269 0-.527-.012-.785-.045A9.234 9.234 0 0 0 5.032 14.5c6.036 0 9.336-5 9.336-9.334 0-.145-.005-.285-.012-.424A6.544 6.544 0 0 0 16 3.039z"
                style="fill:var(--color1, #f4f4fd)" />
        </symbol>
        <symbol id="icon-newspaper" viewBox="0 0 32 32">
            <path
                d="M28 8V4H0v22a2 2 0 0 0 2 2h27a3 3 0 0 0 3-3V8h-4zm-2 18H2V6h24v20zM4 10h20v2H4zm12 4h8v2h-8zm0 4h8v2h-8zm0 4h6v2h-6zM4 14h10v10H4z" />
        </symbol>
        <symbol id="icon-file-picture" viewBox="0 0 32 32">
            <path d="M26 28H6v-4l6-10 8.219 10L26 20v8zM26 15a3 3 0 1 1-6 0 3 3 0 0 1 6 0z" />
            <path
                d="M28.681 7.159c-.694-.947-1.662-2.053-2.724-3.116s-2.169-2.03-3.116-2.724C21.229.137 20.448 0 20 0H4.5A2.503 2.503 0 0 0 2 2.5v27C2 30.878 3.122 32 4.5 32h23c1.378 0 2.5-1.122 2.5-2.5V10c0-.448-.137-1.23-1.319-2.841zm-4.138-1.702A27.334 27.334 0 0 1 26.811 8H22V3.189a27.334 27.334 0 0 1 2.543 2.268zM28 29.5c0 .271-.229.5-.5.5h-23a.507.507 0 0 1-.5-.5v-27c0-.271.229-.5.5-.5H20v7a1 1 0 0 0 1 1h7v19.5z" />
        </symbol>
    </defs>
</svg>